<svg xmlns="http://www.w3.org/2000/svg" width="25" height="50" fill="none"><path fill="#DBDAE2" d="M.0834 24.6814a3.0863 3.0863 0 0 1 .7396-1.7046L19.3524 1.3591A3.089 3.089 0 0 1 21.4973.0278a3.0876 3.0876 0 0 1 2.4213.7138 3.0857 3.0857 0 0 1 1.0807 2.2812 3.086 3.086 0 0 1-.9823 2.325L7.193 24.971l16.824 19.6232a3.0888 3.0888 0 0 1 .9823 2.3257 3.0854 3.0854 0 0 1-1.0807 2.2812 3.0878 3.0878 0 0 1-2.4213.7138 3.0915 3.0915 0 0 1-2.1449-1.3313L.823 26.966a3.0884 3.0884 0 0 1-.7396-2.2842v-.0004Z"/></svg>
